<?xml version="1.0" standalone="no"?>
<!DOCTYPE svg PUBLIC "-//W3C//DTD SVG 20010904//EN"
 "http://www.w3.org/TR/2001/REC-SVG-20010904/DTD/svg10.dtd">
<svg version="1.0" xmlns="http://www.w3.org/2000/svg"
 width="1843.000000pt" height="1843.000000pt" viewBox="0 0 1843.000000 1843.000000"
 preserveAspectRatio="xMidYMid meet">
<metadata>
Created by potrace 1.11, written by Peter Selinger 2001-2013
</metadata>
<g transform="translate(0.000000,1843.000000) scale(0.100000,-0.100000)"
fill="#000000" stroke="none">
<path d="M5825 10144 c-5 -1 -71 -5 -145 -8 -74 -2 -146 -7 -160 -10 -14 -3
-38 -8 -55 -12 -64 -12 -160 -48 -219 -81 -266 -151 -412 -421 -422 -783 -5
-201 23 -361 91 -506 145 -314 399 -463 800 -467 338 -4 520 47 801 224 l101
64 1139 -1 c626 -1 1142 -2 1146 -3 4 0 -11 -29 -33 -63 -175 -272 -207 -323
-204 -327 4 -3 196 57 490 153 l130 43 70 115 c39 64 113 188 165 277 52 88
97 161 100 161 3 0 43 -56 90 -125 97 -143 243 -357 357 -523 l78 -113 115
-35 c105 -33 472 -148 495 -156 35 -11 33 -8 -337 524 -26 37 -44 69 -40 69 4
1 1524 2 3377 3 l3370 1 0 25 0 25 -3396 0 -3397 0 -208 299 c-180 260 -206
301 -196 317 197 314 532 862 532 868 0 4 -108 8 -240 9 l-240 0 -28 -52 c-16
-28 -96 -171 -177 -318 l-147 -267 -67 117 c-37 64 -81 142 -98 172 -17 30
-54 96 -83 145 -29 50 -64 110 -78 135 -13 25 -29 50 -33 56 -6 8 -87 11 -254
11 -241 0 -244 0 -234 -20 10 -18 333 -527 424 -667 23 -36 61 -96 85 -133
l42 -68 -72 -112 c-40 -62 -93 -143 -117 -182 -24 -38 -79 -124 -121 -190
l-78 -120 -1164 0 -1165 0 -3 362 -2 362 -420 0 -420 1 0 -193 0 -192 180 2
180 2 1 -52 c0 -29 2 -65 3 -80 2 -34 -22 -54 -119 -98 -88 -40 -170 -57 -252
-54 -86 3 -127 12 -183 40 -145 73 -211 229 -211 496 1 206 34 323 119 419 98
112 299 145 438 72 50 -25 111 -93 119 -132 3 -16 12 -30 18 -33 7 -2 55 4
107 15 102 19 239 45 280 52 157 27 144 15 113 99 -40 107 -89 184 -164 259
-110 109 -240 159 -454 173 -49 4 -94 8 -100 9 -5 2 -14 2 -20 0z"/>
<path d="M1316 10110 c-10 -4 -13 -53 -14 -227 l0 -221 261 -1 c144 0 269 0
277 -1 13 0 15 -81 14 -667 0 -368 1 -673 3 -678 2 -7 96 -10 271 -10 l267 0
1 673 c1 370 4 675 7 678 3 3 127 6 276 6 l271 -1 0 225 c0 172 -3 224 -12
225 -48 4 -1611 3 -1622 -1z"/>
<path d="M3524 10110 c-9 -3 -31 -46 -49 -95 -42 -114 -110 -301 -270 -740
-70 -192 -156 -426 -190 -520 -35 -93 -84 -226 -108 -295 -25 -69 -48 -132
-51 -140 -6 -14 26 -15 268 -15 151 0 277 3 281 7 4 4 25 69 46 144 21 75 41
139 43 141 3 3 380 5 567 3 l46 0 38 -132 c20 -73 41 -140 45 -148 7 -14 46
-16 283 -15 152 0 278 3 281 6 4 3 -6 37 -20 75 -14 38 -27 74 -29 79 -1 6 -5
17 -8 25 -7 16 -217 592 -324 885 -36 99 -87 239 -113 310 -26 72 -71 195
-100 275 -29 80 -54 147 -56 149 -6 7 -562 7 -580 1z m289 -512 c2 -13 35
-122 72 -243 36 -121 68 -227 70 -235 2 -8 10 -37 19 -64 8 -27 13 -52 11 -55
-2 -5 -366 -7 -371 -2 -1 0 21 76 48 169 27 92 68 231 91 309 23 79 45 143 48
143 4 0 9 -10 12 -22z"/>
<path d="M14925 9688 c-201 -30 -318 -169 -282 -336 26 -123 131 -196 364
-253 143 -35 183 -63 183 -126 -1 -56 -52 -93 -130 -93 -86 0 -147 50 -166
133 l-6 29 -122 -7 c-66 -4 -131 -7 -143 -7 -27 2 -29 -11 -9 -85 49 -184 181
-260 447 -258 72 1 141 7 164 14 168 56 256 157 261 304 6 164 -81 258 -297
320 -47 14 -98 28 -114 31 -112 20 -155 43 -155 82 0 41 42 74 95 74 82 0 133
-35 150 -103 4 -16 12 -23 23 -21 18 4 161 12 229 13 l42 1 -6 38 c-13 84 -77
173 -149 210 -83 41 -252 60 -379 40z"/>
<path d="M16211 9679 c-87 -22 -121 -40 -167 -86 -69 -69 -94 -170 -66 -268
13 -45 70 -111 122 -142 45 -27 155 -65 250 -88 122 -29 170 -63 170 -120 0
-57 -54 -95 -136 -95 -77 0 -132 42 -155 118 l-13 44 -120 -7 c-67 -4 -132 -7
-145 -6 -23 1 -23 -1 -17 -45 14 -103 84 -208 169 -251 70 -35 172 -52 297
-48 128 4 155 9 236 46 175 78 238 328 119 467 -58 67 -212 130 -405 166 -58
10 -100 41 -100 74 0 40 31 64 88 70 75 7 118 -16 145 -78 13 -28 25 -49 27
-47 3 3 63 8 135 11 76 4 132 11 136 17 8 14 -7 72 -32 120 -39 78 -126 136
-229 154 -86 16 -236 12 -309 -6z"/>
<path d="M7859 9678 c-1 -2 -2 -222 -3 -490 l-2 -488 413 0 c386 0 413 1 414
18 3 57 1 194 -4 198 -3 3 -120 6 -261 6 l-256 0 0 94 c0 82 2 94 18 95 9 1
115 1 235 1 l217 0 1 39 c0 22 1 55 1 74 0 19 -1 48 -1 63 l-1 28 -235 -1
-235 0 0 76 0 76 253 0 252 -1 3 107 3 107 -406 0 c-223 0 -406 -1 -406 -2z"/>
<path d="M10589 9658 c0 -13 -1 -233 -2 -491 l-2 -467 155 0 156 0 -1 180 -1
180 66 0 c232 2 300 19 375 95 67 66 89 133 83 248 -8 148 -73 229 -211 266
-21 5 -169 10 -328 11 l-289 1 -1 -23z m463 -191 c69 -19 93 -112 43 -167 -21
-23 -70 -36 -140 -35 l-59 0 -1 95 c-1 52 0 100 3 107 5 14 103 15 154 0z"/>
<path d="M11924 9193 l1 -488 153 -3 153 -3 -3 196 c-2 125 1 195 7 196 6 1
17 2 25 3 8 1 31 -7 51 -17 32 -17 51 -45 134 -198 l98 -179 173 0 173 0 -76
148 c-96 185 -146 253 -200 268 -34 9 -28 17 25 36 57 21 113 72 144 131 32
62 32 185 0 247 -44 84 -94 120 -193 138 -29 6 -192 11 -360 12 l-306 0 1
-487z m528 271 c75 -38 59 -150 -24 -169 -18 -4 -70 -9 -115 -12 l-81 -4 -4
68 c-1 37 -2 83 0 101 l3 33 97 -2 c60 -1 108 -7 124 -15z"/>
<path d="M13324 9193 l1 -488 413 -3 413 -2 -3 111 -3 111 -255 0 -255 -1 -5
26 c-3 14 -4 57 -2 97 l3 71 234 -1 233 -1 0 86 c0 47 -1 93 -4 101 -3 13 -35
16 -230 15 -124 0 -228 4 -231 9 -5 8 -6 40 -4 120 l1 23 240 -1 c133 -1 246
1 253 4 8 3 12 37 12 108 l1 102 -407 0 -406 0 1 -487z"/>
</g>
</svg>
